<svg xmlns="http://www.w3.org/2000/svg" height="48" viewBox="0 -960 960 960" width="48"><path d="M479.862-59q-86.778 0-163.98-32.52-77.202-32.52-134.522-90.34-57.32-57.82-89.84-135.16T59-482q0-84.64 32.824-162.329 32.825-77.688 89.952-135.156 57.128-57.469 134.856-89.992T480.024-902q85.664 0 163.266 32.467 77.601 32.468 134.636 89.84Q834.96-722.32 868.48-644.48T902-482q0 87.64-32.924 165.138-32.924 77.497-90.222 134.955-57.297 57.457-134.756 90.182Q566.64-59 479.862-59Zm.138-91q138.375 0 234.188-96.312Q810-342.625 810-482q0-54.766-17-105.883T743-681L280-219q41.286 35.941 92.81 52.471Q424.334-150 480-150ZM218-282l461-462q-43.183-33.426-93.26-49.713Q535.662-810 480-810q-138.375 0-234.188 95.684Q150-618.631 150-482q0 56.013 18.787 106.915Q187.574-324.183 218-282Z"/></svg>