<?xml version="1.0" encoding="iso-8859-1"?>
<!-- Uploaded to: SVG Repo, www.svgrepo.com, Generator: SVG Repo Mixer Tools -->
<svg fill="#000000" height="800px" width="800px" version="1.1" id="Layer_1" xmlns="http://www.w3.org/2000/svg" xmlns:xlink="http://www.w3.org/1999/xlink" 
	 viewBox="0 0 480.412 480.412" xml:space="preserve">
<g>
	<polygon points="424.806,401.104 424.806,79.308 459.199,113.701 480.412,92.488 409.806,21.882 339.199,92.489 360.412,113.702 
		394.806,79.308 394.806,401.104 360.412,366.711 339.199,387.924 409.806,458.53 480.412,387.924 459.199,366.711 	"/>
	<polygon points="0,172.706 30,172.706 30,117.706 137.5,117.706 137.5,362.706 82.5,362.706 82.5,392.706 222.5,392.706 
		222.5,362.706 167.5,362.706 167.5,117.706 275,117.706 275,172.706 305,172.706 305,87.706 0,87.706 	"/>
</g>
</svg>